<mxfile host="Electron" modified="2023-07-08T08:10:23.115Z" agent="Mozilla/5.0 (Windows NT 10.0; Win64; x64) AppleWebKit/537.36 (KHTML, like Gecko) draw.io/21.6.1 Chrome/112.0.5615.204 Electron/24.6.1 Safari/537.36" etag="5Iz5HITOFY2FoEsy7avR" version="21.6.1" type="device">
  <diagram name="第 1 页" id="BU6Q65cIdg73-IPY4VQ8">
    <mxGraphModel dx="1418" dy="820" grid="1" gridSize="10" guides="1" tooltips="1" connect="1" arrows="1" fold="1" page="1" pageScale="1" pageWidth="1169" pageHeight="827" math="0" shadow="0">
      <root>
        <mxCell id="0" />
        <mxCell id="1" parent="0" />
        <mxCell id="0XGtaPL-Q8ta_YeYpODU-73" value="" style="group" parent="1" vertex="1" connectable="0">
          <mxGeometry x="80" y="120" width="980" height="480" as="geometry" />
        </mxCell>
        <mxCell id="st4I57soAoaPSC-TbPq0-2" value="" style="rounded=1;whiteSpace=wrap;html=1;fontSize=16;" parent="0XGtaPL-Q8ta_YeYpODU-73" vertex="1">
          <mxGeometry y="120" width="440" height="280" as="geometry" />
        </mxCell>
        <mxCell id="st4I57soAoaPSC-TbPq0-4" value="" style="rounded=1;whiteSpace=wrap;html=1;" parent="0XGtaPL-Q8ta_YeYpODU-73" vertex="1">
          <mxGeometry x="600" width="380" height="200" as="geometry" />
        </mxCell>
        <mxCell id="0XGtaPL-Q8ta_YeYpODU-2" value="&lt;font color=&quot;#ffffff&quot;&gt;API Server&lt;/font&gt;" style="rounded=0;whiteSpace=wrap;html=1;fillColor=#000000;fontSize=16;" parent="0XGtaPL-Q8ta_YeYpODU-73" vertex="1">
          <mxGeometry x="30" y="264" width="380" height="66" as="geometry" />
        </mxCell>
        <mxCell id="0XGtaPL-Q8ta_YeYpODU-3" value="Scheduler" style="rounded=0;whiteSpace=wrap;html=1;fontSize=16;fillColor=#999999;strokeColor=none;" parent="0XGtaPL-Q8ta_YeYpODU-73" vertex="1">
          <mxGeometry x="60" y="347" width="120" height="40" as="geometry" />
        </mxCell>
        <mxCell id="0XGtaPL-Q8ta_YeYpODU-4" value="Controller Manager" style="rounded=0;whiteSpace=wrap;html=1;fontSize=16;strokeColor=none;fillColor=#999999;" parent="0XGtaPL-Q8ta_YeYpODU-73" vertex="1">
          <mxGeometry x="230" y="347" width="150" height="40" as="geometry" />
        </mxCell>
        <mxCell id="0XGtaPL-Q8ta_YeYpODU-7" value="Authentication/Authorization/Admission Control" style="rounded=0;whiteSpace=wrap;html=1;fontSize=13;strokeColor=none;fillColor=#999999;" parent="0XGtaPL-Q8ta_YeYpODU-73" vertex="1">
          <mxGeometry x="75" y="245" width="290" height="30" as="geometry" />
        </mxCell>
        <mxCell id="0XGtaPL-Q8ta_YeYpODU-8" value="kubctl" style="rounded=0;whiteSpace=wrap;html=1;fontSize=16;strokeColor=none;fillColor=#999999;" parent="0XGtaPL-Q8ta_YeYpODU-73" vertex="1">
          <mxGeometry x="50" y="160" width="85" height="40" as="geometry" />
        </mxCell>
        <mxCell id="0XGtaPL-Q8ta_YeYpODU-9" value="kubctl" style="rounded=0;whiteSpace=wrap;html=1;fontSize=16;strokeColor=none;fillColor=#999999;" parent="0XGtaPL-Q8ta_YeYpODU-73" vertex="1">
          <mxGeometry x="180" y="170" width="85" height="40" as="geometry" />
        </mxCell>
        <mxCell id="0XGtaPL-Q8ta_YeYpODU-10" value="etcd" style="shape=cylinder3;whiteSpace=wrap;html=1;boundedLbl=1;backgroundOutline=1;size=15;fontSize=16;fillColor=#999999;" parent="0XGtaPL-Q8ta_YeYpODU-73" vertex="1">
          <mxGeometry x="290" y="145" width="120" height="70" as="geometry" />
        </mxCell>
        <mxCell id="0XGtaPL-Q8ta_YeYpODU-17" value="" style="endArrow=classic;html=1;rounded=0;" parent="0XGtaPL-Q8ta_YeYpODU-73" edge="1">
          <mxGeometry width="50" height="50" relative="1" as="geometry">
            <mxPoint x="349.9" y="245" as="sourcePoint" />
            <mxPoint x="349.9" y="215" as="targetPoint" />
          </mxGeometry>
        </mxCell>
        <mxCell id="0XGtaPL-Q8ta_YeYpODU-18" value="" style="endArrow=classic;html=1;rounded=0;exitX=0.5;exitY=1;exitDx=0;exitDy=0;" parent="0XGtaPL-Q8ta_YeYpODU-73" source="0XGtaPL-Q8ta_YeYpODU-8" edge="1">
          <mxGeometry width="50" height="50" relative="1" as="geometry">
            <mxPoint x="92.42999999999998" y="205" as="sourcePoint" />
            <mxPoint x="92.42999999999998" y="245" as="targetPoint" />
          </mxGeometry>
        </mxCell>
        <mxCell id="0XGtaPL-Q8ta_YeYpODU-20" value="" style="endArrow=classic;html=1;rounded=0;exitX=0.5;exitY=1;exitDx=0;exitDy=0;" parent="0XGtaPL-Q8ta_YeYpODU-73" source="0XGtaPL-Q8ta_YeYpODU-9" edge="1">
          <mxGeometry width="50" height="50" relative="1" as="geometry">
            <mxPoint x="222.77999999999997" y="200" as="sourcePoint" />
            <mxPoint x="222.20999999999998" y="245" as="targetPoint" />
          </mxGeometry>
        </mxCell>
        <mxCell id="0XGtaPL-Q8ta_YeYpODU-22" value="" style="endArrow=classic;html=1;rounded=0;" parent="0XGtaPL-Q8ta_YeYpODU-73" edge="1">
          <mxGeometry width="50" height="50" relative="1" as="geometry">
            <mxPoint x="92" y="80" as="sourcePoint" />
            <mxPoint x="92.25999999999999" y="160" as="targetPoint" />
          </mxGeometry>
        </mxCell>
        <mxCell id="0XGtaPL-Q8ta_YeYpODU-23" value="" style="endArrow=classic;html=1;rounded=0;" parent="0XGtaPL-Q8ta_YeYpODU-73" edge="1">
          <mxGeometry width="50" height="50" relative="1" as="geometry">
            <mxPoint x="222.43" y="150" as="sourcePoint" />
            <mxPoint x="222.52000000000004" y="170" as="targetPoint" />
          </mxGeometry>
        </mxCell>
        <mxCell id="0XGtaPL-Q8ta_YeYpODU-24" value="" style="endArrow=none;html=1;rounded=0;" parent="0XGtaPL-Q8ta_YeYpODU-73" edge="1">
          <mxGeometry width="50" height="50" relative="1" as="geometry">
            <mxPoint x="120.02000000000001" y="347" as="sourcePoint" />
            <mxPoint x="120" y="330" as="targetPoint" />
          </mxGeometry>
        </mxCell>
        <mxCell id="0XGtaPL-Q8ta_YeYpODU-26" value="" style="endArrow=none;html=1;rounded=0;" parent="0XGtaPL-Q8ta_YeYpODU-73" edge="1">
          <mxGeometry width="50" height="50" relative="1" as="geometry">
            <mxPoint x="304.91999999999996" y="347" as="sourcePoint" />
            <mxPoint x="304.9" y="330" as="targetPoint" />
          </mxGeometry>
        </mxCell>
        <mxCell id="0XGtaPL-Q8ta_YeYpODU-27" value="&lt;b&gt;Master&lt;/b&gt;" style="text;html=1;strokeColor=none;fillColor=none;align=center;verticalAlign=middle;whiteSpace=wrap;rounded=0;fontSize=16;" parent="0XGtaPL-Q8ta_YeYpODU-73" vertex="1">
          <mxGeometry x="10" y="130" width="60" height="30" as="geometry" />
        </mxCell>
        <mxCell id="0XGtaPL-Q8ta_YeYpODU-28" value="" style="rounded=0;whiteSpace=wrap;html=1;strokeColor=none;fillColor=#999999;" parent="0XGtaPL-Q8ta_YeYpODU-73" vertex="1">
          <mxGeometry x="620" y="40" width="80" height="140" as="geometry" />
        </mxCell>
        <mxCell id="0XGtaPL-Q8ta_YeYpODU-29" value="&lt;font color=&quot;#ffffff&quot;&gt;Proxy&lt;/font&gt;" style="rounded=0;whiteSpace=wrap;html=1;strokeColor=none;fillColor=#999999;" parent="0XGtaPL-Q8ta_YeYpODU-73" vertex="1">
          <mxGeometry x="730" y="40" width="210" height="40" as="geometry" />
        </mxCell>
        <mxCell id="0XGtaPL-Q8ta_YeYpODU-30" value="" style="rounded=1;whiteSpace=wrap;html=1;" parent="0XGtaPL-Q8ta_YeYpODU-73" vertex="1">
          <mxGeometry x="720" y="110" width="110" height="70" as="geometry" />
        </mxCell>
        <mxCell id="0XGtaPL-Q8ta_YeYpODU-32" value="" style="triangle;whiteSpace=wrap;html=1;rotation=-90;labelBackgroundColor=none;fillColor=#000000;strokeColor=none;" parent="0XGtaPL-Q8ta_YeYpODU-73" vertex="1">
          <mxGeometry x="620" y="100" width="80" height="60" as="geometry" />
        </mxCell>
        <mxCell id="0XGtaPL-Q8ta_YeYpODU-33" value="kubelet" style="text;html=1;strokeColor=none;fillColor=none;align=center;verticalAlign=middle;whiteSpace=wrap;rounded=0;" parent="0XGtaPL-Q8ta_YeYpODU-73" vertex="1">
          <mxGeometry x="630" y="50" width="60" height="30" as="geometry" />
        </mxCell>
        <mxCell id="0XGtaPL-Q8ta_YeYpODU-34" value="&lt;font color=&quot;#ffffff&quot;&gt;cAdvisor&lt;/font&gt;" style="text;html=1;strokeColor=none;fillColor=none;align=center;verticalAlign=middle;whiteSpace=wrap;rounded=0;" parent="0XGtaPL-Q8ta_YeYpODU-73" vertex="1">
          <mxGeometry x="630" y="140" width="60" height="30" as="geometry" />
        </mxCell>
        <mxCell id="0XGtaPL-Q8ta_YeYpODU-35" value="" style="triangle;whiteSpace=wrap;html=1;rotation=-90;" parent="0XGtaPL-Q8ta_YeYpODU-73" vertex="1">
          <mxGeometry x="728" y="135" width="30" height="20" as="geometry" />
        </mxCell>
        <mxCell id="0XGtaPL-Q8ta_YeYpODU-36" value="" style="triangle;whiteSpace=wrap;html=1;rotation=-90;" parent="0XGtaPL-Q8ta_YeYpODU-73" vertex="1">
          <mxGeometry x="760" y="135" width="30" height="20" as="geometry" />
        </mxCell>
        <mxCell id="0XGtaPL-Q8ta_YeYpODU-37" value="" style="triangle;whiteSpace=wrap;html=1;rotation=-90;" parent="0XGtaPL-Q8ta_YeYpODU-73" vertex="1">
          <mxGeometry x="792" y="135" width="30" height="20" as="geometry" />
        </mxCell>
        <mxCell id="0XGtaPL-Q8ta_YeYpODU-42" value="" style="group" parent="0XGtaPL-Q8ta_YeYpODU-73" vertex="1" connectable="0">
          <mxGeometry x="850" y="110" width="110" height="70" as="geometry" />
        </mxCell>
        <mxCell id="0XGtaPL-Q8ta_YeYpODU-38" value="" style="rounded=1;whiteSpace=wrap;html=1;" parent="0XGtaPL-Q8ta_YeYpODU-42" vertex="1">
          <mxGeometry width="110" height="70" as="geometry" />
        </mxCell>
        <mxCell id="0XGtaPL-Q8ta_YeYpODU-39" value="" style="triangle;whiteSpace=wrap;html=1;rotation=-90;" parent="0XGtaPL-Q8ta_YeYpODU-42" vertex="1">
          <mxGeometry x="8" y="25" width="30" height="20" as="geometry" />
        </mxCell>
        <mxCell id="0XGtaPL-Q8ta_YeYpODU-40" value="" style="triangle;whiteSpace=wrap;html=1;rotation=-90;" parent="0XGtaPL-Q8ta_YeYpODU-42" vertex="1">
          <mxGeometry x="40" y="25" width="30" height="20" as="geometry" />
        </mxCell>
        <mxCell id="0XGtaPL-Q8ta_YeYpODU-41" value="" style="triangle;whiteSpace=wrap;html=1;rotation=-90;" parent="0XGtaPL-Q8ta_YeYpODU-42" vertex="1">
          <mxGeometry x="72" y="25" width="30" height="20" as="geometry" />
        </mxCell>
        <mxCell id="0XGtaPL-Q8ta_YeYpODU-43" value="" style="rounded=0;whiteSpace=wrap;html=1;fillColor=none;dashed=1;strokeWidth=2;" parent="0XGtaPL-Q8ta_YeYpODU-73" vertex="1">
          <mxGeometry x="730" y="120" width="220" height="50" as="geometry" />
        </mxCell>
        <mxCell id="0XGtaPL-Q8ta_YeYpODU-44" value="&lt;b&gt;&lt;font style=&quot;font-size: 14px;&quot;&gt;Docker&lt;/font&gt;&lt;/b&gt;" style="text;html=1;strokeColor=none;fillColor=none;align=center;verticalAlign=middle;whiteSpace=wrap;rounded=0;" parent="0XGtaPL-Q8ta_YeYpODU-73" vertex="1">
          <mxGeometry x="810" y="130" width="60" height="30" as="geometry" />
        </mxCell>
        <mxCell id="0XGtaPL-Q8ta_YeYpODU-45" value="&lt;b&gt;Node&lt;/b&gt;" style="text;html=1;strokeColor=none;fillColor=none;align=center;verticalAlign=middle;whiteSpace=wrap;rounded=0;fontSize=16;" parent="0XGtaPL-Q8ta_YeYpODU-73" vertex="1">
          <mxGeometry x="600" y="10" width="60" height="30" as="geometry" />
        </mxCell>
        <mxCell id="0XGtaPL-Q8ta_YeYpODU-46" value="" style="rounded=1;whiteSpace=wrap;html=1;" parent="0XGtaPL-Q8ta_YeYpODU-73" vertex="1">
          <mxGeometry x="600" y="280" width="380" height="200" as="geometry" />
        </mxCell>
        <mxCell id="0XGtaPL-Q8ta_YeYpODU-47" value="" style="rounded=0;whiteSpace=wrap;html=1;fillColor=#999999;strokeColor=none;" parent="0XGtaPL-Q8ta_YeYpODU-73" vertex="1">
          <mxGeometry x="620" y="320" width="80" height="140" as="geometry" />
        </mxCell>
        <mxCell id="0XGtaPL-Q8ta_YeYpODU-48" value="&lt;font color=&quot;#ffffff&quot;&gt;Proxy&lt;/font&gt;" style="rounded=0;whiteSpace=wrap;html=1;fillColor=#999999;strokeColor=none;" parent="0XGtaPL-Q8ta_YeYpODU-73" vertex="1">
          <mxGeometry x="730" y="320" width="210" height="40" as="geometry" />
        </mxCell>
        <mxCell id="0XGtaPL-Q8ta_YeYpODU-49" value="" style="rounded=1;whiteSpace=wrap;html=1;fillColor=#CCCCCC;" parent="0XGtaPL-Q8ta_YeYpODU-73" vertex="1">
          <mxGeometry x="720" y="390" width="110" height="70" as="geometry" />
        </mxCell>
        <mxCell id="0XGtaPL-Q8ta_YeYpODU-50" value="" style="triangle;whiteSpace=wrap;html=1;rotation=-90;labelBackgroundColor=none;fillColor=#000000;strokeColor=none;" parent="0XGtaPL-Q8ta_YeYpODU-73" vertex="1">
          <mxGeometry x="620" y="380" width="80" height="60" as="geometry" />
        </mxCell>
        <mxCell id="0XGtaPL-Q8ta_YeYpODU-51" value="kubelet" style="text;html=1;strokeColor=none;fillColor=none;align=center;verticalAlign=middle;whiteSpace=wrap;rounded=0;" parent="0XGtaPL-Q8ta_YeYpODU-73" vertex="1">
          <mxGeometry x="630" y="330" width="60" height="30" as="geometry" />
        </mxCell>
        <mxCell id="0XGtaPL-Q8ta_YeYpODU-52" value="&lt;font color=&quot;#ffffff&quot;&gt;cAdvisor&lt;/font&gt;" style="text;html=1;strokeColor=none;fillColor=none;align=center;verticalAlign=middle;whiteSpace=wrap;rounded=0;" parent="0XGtaPL-Q8ta_YeYpODU-73" vertex="1">
          <mxGeometry x="630" y="420" width="60" height="30" as="geometry" />
        </mxCell>
        <mxCell id="0XGtaPL-Q8ta_YeYpODU-53" value="" style="triangle;whiteSpace=wrap;html=1;rotation=-90;" parent="0XGtaPL-Q8ta_YeYpODU-73" vertex="1">
          <mxGeometry x="728" y="415" width="30" height="20" as="geometry" />
        </mxCell>
        <mxCell id="0XGtaPL-Q8ta_YeYpODU-54" value="" style="triangle;whiteSpace=wrap;html=1;rotation=-90;" parent="0XGtaPL-Q8ta_YeYpODU-73" vertex="1">
          <mxGeometry x="760" y="415" width="30" height="20" as="geometry" />
        </mxCell>
        <mxCell id="0XGtaPL-Q8ta_YeYpODU-55" value="" style="triangle;whiteSpace=wrap;html=1;rotation=-90;" parent="0XGtaPL-Q8ta_YeYpODU-73" vertex="1">
          <mxGeometry x="792" y="415" width="30" height="20" as="geometry" />
        </mxCell>
        <mxCell id="0XGtaPL-Q8ta_YeYpODU-56" value="" style="group" parent="0XGtaPL-Q8ta_YeYpODU-73" vertex="1" connectable="0">
          <mxGeometry x="850" y="390" width="110" height="70" as="geometry" />
        </mxCell>
        <mxCell id="0XGtaPL-Q8ta_YeYpODU-57" value="" style="rounded=1;whiteSpace=wrap;html=1;fillColor=#CCCCCC;" parent="0XGtaPL-Q8ta_YeYpODU-56" vertex="1">
          <mxGeometry width="110" height="70" as="geometry" />
        </mxCell>
        <mxCell id="0XGtaPL-Q8ta_YeYpODU-58" value="" style="triangle;whiteSpace=wrap;html=1;rotation=-90;" parent="0XGtaPL-Q8ta_YeYpODU-56" vertex="1">
          <mxGeometry x="8" y="25" width="30" height="20" as="geometry" />
        </mxCell>
        <mxCell id="0XGtaPL-Q8ta_YeYpODU-59" value="" style="triangle;whiteSpace=wrap;html=1;rotation=-90;" parent="0XGtaPL-Q8ta_YeYpODU-56" vertex="1">
          <mxGeometry x="40" y="25" width="30" height="20" as="geometry" />
        </mxCell>
        <mxCell id="0XGtaPL-Q8ta_YeYpODU-60" value="" style="triangle;whiteSpace=wrap;html=1;rotation=-90;" parent="0XGtaPL-Q8ta_YeYpODU-56" vertex="1">
          <mxGeometry x="72" y="25" width="30" height="20" as="geometry" />
        </mxCell>
        <mxCell id="0XGtaPL-Q8ta_YeYpODU-61" value="" style="rounded=0;whiteSpace=wrap;html=1;fillColor=none;dashed=1;strokeWidth=2;" parent="0XGtaPL-Q8ta_YeYpODU-73" vertex="1">
          <mxGeometry x="730" y="400" width="220" height="50" as="geometry" />
        </mxCell>
        <mxCell id="0XGtaPL-Q8ta_YeYpODU-62" value="&lt;b&gt;&lt;font style=&quot;font-size: 14px;&quot;&gt;Docker&lt;/font&gt;&lt;/b&gt;" style="text;html=1;strokeColor=none;fillColor=none;align=center;verticalAlign=middle;whiteSpace=wrap;rounded=0;" parent="0XGtaPL-Q8ta_YeYpODU-73" vertex="1">
          <mxGeometry x="810" y="410" width="60" height="30" as="geometry" />
        </mxCell>
        <mxCell id="0XGtaPL-Q8ta_YeYpODU-63" value="&lt;b&gt;Node&lt;/b&gt;" style="text;html=1;strokeColor=none;fillColor=none;align=center;verticalAlign=middle;whiteSpace=wrap;rounded=0;fontSize=16;" parent="0XGtaPL-Q8ta_YeYpODU-73" vertex="1">
          <mxGeometry x="600" y="290" width="60" height="30" as="geometry" />
        </mxCell>
        <mxCell id="0XGtaPL-Q8ta_YeYpODU-64" value="" style="endArrow=classic;html=1;rounded=0;entryX=0;entryY=0.5;entryDx=0;entryDy=0;exitX=1;exitY=0.5;exitDx=0;exitDy=0;" parent="0XGtaPL-Q8ta_YeYpODU-73" source="0XGtaPL-Q8ta_YeYpODU-2" target="0XGtaPL-Q8ta_YeYpODU-28" edge="1">
          <mxGeometry width="50" height="50" relative="1" as="geometry">
            <mxPoint x="410" y="270" as="sourcePoint" />
            <mxPoint x="460" y="220" as="targetPoint" />
          </mxGeometry>
        </mxCell>
        <mxCell id="0XGtaPL-Q8ta_YeYpODU-65" value="" style="endArrow=classic;html=1;rounded=0;exitX=1;exitY=0.5;exitDx=0;exitDy=0;entryX=0;entryY=0.5;entryDx=0;entryDy=0;" parent="0XGtaPL-Q8ta_YeYpODU-73" source="0XGtaPL-Q8ta_YeYpODU-2" target="0XGtaPL-Q8ta_YeYpODU-47" edge="1">
          <mxGeometry width="50" height="50" relative="1" as="geometry">
            <mxPoint x="460" y="350" as="sourcePoint" />
            <mxPoint x="510" y="300" as="targetPoint" />
          </mxGeometry>
        </mxCell>
        <mxCell id="0XGtaPL-Q8ta_YeYpODU-68" value="" style="shape=umlActor;verticalLabelPosition=bottom;verticalAlign=top;html=1;outlineConnect=0;" parent="0XGtaPL-Q8ta_YeYpODU-73" vertex="1">
          <mxGeometry x="217.5" y="125" width="10" height="20" as="geometry" />
        </mxCell>
        <mxCell id="0XGtaPL-Q8ta_YeYpODU-72" value="" style="shape=umlActor;verticalLabelPosition=bottom;verticalAlign=top;html=1;outlineConnect=0;" parent="0XGtaPL-Q8ta_YeYpODU-73" vertex="1">
          <mxGeometry x="87.5" y="55" width="10" height="20" as="geometry" />
        </mxCell>
        <mxCell id="qjVm-_-8QYZTus0LaoMf-1" value="" style="endArrow=classic;html=1;rounded=0;exitX=0.5;exitY=1;exitDx=0;exitDy=0;entryX=0.5;entryY=0;entryDx=0;entryDy=0;" edge="1" parent="0XGtaPL-Q8ta_YeYpODU-73" source="0XGtaPL-Q8ta_YeYpODU-29" target="0XGtaPL-Q8ta_YeYpODU-38">
          <mxGeometry width="50" height="50" relative="1" as="geometry">
            <mxPoint x="1020" y="200" as="sourcePoint" />
            <mxPoint x="1070" y="150" as="targetPoint" />
          </mxGeometry>
        </mxCell>
        <mxCell id="qjVm-_-8QYZTus0LaoMf-2" value="" style="endArrow=classic;html=1;rounded=0;entryX=0.5;entryY=0;entryDx=0;entryDy=0;exitX=0.5;exitY=1;exitDx=0;exitDy=0;" edge="1" parent="0XGtaPL-Q8ta_YeYpODU-73" source="0XGtaPL-Q8ta_YeYpODU-29" target="0XGtaPL-Q8ta_YeYpODU-30">
          <mxGeometry width="50" height="50" relative="1" as="geometry">
            <mxPoint x="840" y="80" as="sourcePoint" />
            <mxPoint x="1070" y="150" as="targetPoint" />
          </mxGeometry>
        </mxCell>
        <mxCell id="qjVm-_-8QYZTus0LaoMf-3" value="" style="endArrow=classic;html=1;rounded=0;entryX=0.5;entryY=0;entryDx=0;entryDy=0;exitX=1;exitY=0.25;exitDx=0;exitDy=0;" edge="1" parent="0XGtaPL-Q8ta_YeYpODU-73" source="0XGtaPL-Q8ta_YeYpODU-28" target="0XGtaPL-Q8ta_YeYpODU-30">
          <mxGeometry width="50" height="50" relative="1" as="geometry">
            <mxPoint x="570" y="270" as="sourcePoint" />
            <mxPoint x="620" y="220" as="targetPoint" />
          </mxGeometry>
        </mxCell>
        <mxCell id="qjVm-_-8QYZTus0LaoMf-4" value="" style="endArrow=classic;html=1;rounded=0;entryX=0.5;entryY=0;entryDx=0;entryDy=0;exitX=1;exitY=0.25;exitDx=0;exitDy=0;" edge="1" parent="0XGtaPL-Q8ta_YeYpODU-73" source="0XGtaPL-Q8ta_YeYpODU-28" target="0XGtaPL-Q8ta_YeYpODU-38">
          <mxGeometry width="50" height="50" relative="1" as="geometry">
            <mxPoint x="580" y="270" as="sourcePoint" />
            <mxPoint x="630" y="220" as="targetPoint" />
          </mxGeometry>
        </mxCell>
        <mxCell id="qjVm-_-8QYZTus0LaoMf-5" value="" style="endArrow=classic;html=1;rounded=0;exitX=0.5;exitY=1;exitDx=0;exitDy=0;entryX=0.5;entryY=0;entryDx=0;entryDy=0;" edge="1" parent="0XGtaPL-Q8ta_YeYpODU-73" source="0XGtaPL-Q8ta_YeYpODU-48" target="0XGtaPL-Q8ta_YeYpODU-57">
          <mxGeometry width="50" height="50" relative="1" as="geometry">
            <mxPoint x="910" y="270" as="sourcePoint" />
            <mxPoint x="960" y="230" as="targetPoint" />
          </mxGeometry>
        </mxCell>
        <mxCell id="qjVm-_-8QYZTus0LaoMf-6" value="" style="endArrow=classic;html=1;rounded=0;entryX=0.5;entryY=0;entryDx=0;entryDy=0;exitX=0.5;exitY=1;exitDx=0;exitDy=0;" edge="1" parent="0XGtaPL-Q8ta_YeYpODU-73" source="0XGtaPL-Q8ta_YeYpODU-48" target="0XGtaPL-Q8ta_YeYpODU-49">
          <mxGeometry width="50" height="50" relative="1" as="geometry">
            <mxPoint x="610" y="600" as="sourcePoint" />
            <mxPoint x="660" y="550" as="targetPoint" />
          </mxGeometry>
        </mxCell>
        <mxCell id="qjVm-_-8QYZTus0LaoMf-7" value="" style="endArrow=classic;html=1;rounded=0;entryX=0.5;entryY=0;entryDx=0;entryDy=0;exitX=1;exitY=0.25;exitDx=0;exitDy=0;" edge="1" parent="0XGtaPL-Q8ta_YeYpODU-73" source="0XGtaPL-Q8ta_YeYpODU-47" target="0XGtaPL-Q8ta_YeYpODU-49">
          <mxGeometry width="50" height="50" relative="1" as="geometry">
            <mxPoint x="590" y="560" as="sourcePoint" />
            <mxPoint x="640" y="510" as="targetPoint" />
          </mxGeometry>
        </mxCell>
        <mxCell id="qjVm-_-8QYZTus0LaoMf-8" value="" style="endArrow=classic;html=1;rounded=0;entryX=0.5;entryY=0;entryDx=0;entryDy=0;exitX=1;exitY=0.25;exitDx=0;exitDy=0;" edge="1" parent="0XGtaPL-Q8ta_YeYpODU-73" source="0XGtaPL-Q8ta_YeYpODU-47" target="0XGtaPL-Q8ta_YeYpODU-57">
          <mxGeometry width="50" height="50" relative="1" as="geometry">
            <mxPoint x="640" y="570" as="sourcePoint" />
            <mxPoint x="690" y="520" as="targetPoint" />
          </mxGeometry>
        </mxCell>
      </root>
    </mxGraphModel>
  </diagram>
</mxfile>
